/* XPM */
static char *result[] = {
/* columns rows colors chars-per-pixel */
"96 96 24 1 ",
"  c #41621D",
". c #486B1F",
"X c #567C25",
"o c #678F2A",
"O c #729C30",
"+ c #88B037",
"@ c #8EB638",
"# c #6E972D",
"$ c #779F30",
"% c #93BA3B",
"& c #82AB33",
"* c #5E8627",
"= c #9CC240",
"- c #4E7222",
"; c #7DA533",
": c #3B581A",
"> c #365319",
", c #2F4816",
"< c #324D18",
"1 c #253911",
"2 c #2B4314",
"3 c #1B2A0D",
"4 c #262622",
"5 c #141F0A",
/* pixels */
"   ..XoooooXoO+@+#o$%$+O+$#$O#++#o#+%o&+@##o@&+oooo*o++o#$@%#O$$#$@+o#@=+#OOO$%+#*o@%Ooo##***X- ",
"  .XXo#X**-*o#+@&oo+=%#o#o*#$#++#o#++o+@+##+=%#oo++@X#$$oooooO#+++#*o@o&o*###O+&oo#++O####XXXX- ",
"  XXX#ooXXXo**&&*O$@=%#oo#&@%#$o**ooO;+@$#;@==#oo+%@*#$$#o*Xo#O@@+#*&=%oX*&@%##oOO#$;O$$##oooo. ",
": XXo##o*XoXXX*XXO;+@&oo$$@%+*XXXo-.OO;$##$+@+#oo#+ooo;++*XXO$;++OOX+=%oX*+%@o*X$#o###$$##oo#o :",
": .ooXO#ooOO#XX**oO##oo#$o#&*oo*&+#-oo##o####O##$$$oX*+@&oXXOO$#oo#X&+&*oo*&*ooo++**XooO#O$ooo.:",
" .Xo-X##&&$$#.-o-XXXXoO$O-...o#&@+$#XX ..X*XXOoOOooX-o+&Xoo-oo#X-.*X-Xo#OoX.Xo#&@&X*oOo**ooXo*X ",
".oo-----&&Ooo-oo--oo--oo#-...oo&+#$o  .-.oo. Xo#X.X .oo- #O#-....-X*- o$$o   .X&&-XX#$o*-ooo**X.",
".oo-X$$-.--###$# Xoo-- X--ooo- -$oo-. ...oo:>.*o. : .ooXXoOo-..ooooX. oOoX   **o-#oo-oo-.oo--ooO",
" ooX-O$$ -###o$o .XoXX-X--o#oXXoOOoXXoo#--  :>   >.oo -X#-o  ...*ooX. X* :.  o*X OO#*** : --oO$O",
":*oXXooo X$$;-o.o. -*ooXXXoo*X-*ooXX-oO#--     :,<*oo:Xo$# : -**ooo*: X----  o*- .#o**.Xo#o-Xoo ",
"1,,-X:>>>oo$#--ooX  X*o-X-XX---***-.: o. : XX...  XX  XoOO >:Xo*o-oo.>..**X- --.--:>-- X$$o  >21",
"1222 >>>>oo* :-oo*.:-*X. > -.-XX .--    ..X** --  --...X*X:::-*X--ooX:..*X** --.  .. ..X##o<><21",
"11, X***  X>>>>--X><.. ::  ---X-  .  .. ..*X  ...-X- ......: --- :-X*.-X--X**---**... :..<,22,11",
"12.-**** >>>  >>: <:>>>  .-. .-.    -X- :.-. :  --.-......-. .--::-*-.-**--.X*. *X. : >,><2,>>11",
"1.X--X*-X-  ----   ->>  -X-.:  : .> -X-::.-:>>  .-:: -X-..-X-    :--.>-*X*  **.-X** ><,1,111<,31",
"2-.. > XXX-.--o- .X-  X--.   ..:,.Xoo-.>,,,2<:.X-.>: -XXX..X. .      >.-X.  *X .**.-.>1121112131",
"1,<<><.  Xo-**oX -XX:XX-- :  ..>2-*oo.>22:>>>:XX: .. XXX - .      -.::.X-:,  ::: :.-.>111111,131",
"112,>-*. XX**o**X**- X*-X-- >-*X>.X**.,,:.o*->**XXXX.XX-.-- ::.-X-- >< -.,,   --::-X >2111<<<<13",
"312.**** XXoXo*X***- X*--X-.-oooX>---.>> *ooXXX*XooX------    .-XXoo. ,,  .: X**,,.-2:<<2--<,,11",
"31<-XX* .X*oXoo-XX*  --.-. X-**X>>,,,,,2 X**X-XXXooXX   -::    . *oo--..  -X.X**<<2,,,>..XX2,221",
"11<..:< -*oo*X-*-----XX--- >>>:>,2,,2,,2, :XX.-*X:Xoo -2,: : XX --o*XX--*OOXX*oX><<:*<2-XXX22111",
"31112>.--******Xoo-.-X**--:>,2,,-  >>>>,2>-X.:XXX<:Xo  ,>: ,*ooX-- --X-X#Oo*-oo<<---**<>XX.:,211",
"11211,XXX>>*ooX-.- --X**X:X>>> X*X-. >>>,2 :::.X,,,XX  >>,,<**X --X--**.*ooX **  XX*XXX,2,,>,131",
"121122-X-<>*oo--.-X*-***  -X.- X*X<<*o- >>X**:,:< ,,,,>>>,,<<:   X*-XoooX** >X*-X*** XX:22,>2132",
"112112--2,:X**-:>>X*X-  > -*X-X.- :>X*oX>>X*X: :.. ::< --::<>> -..--XX*--**::ooXXX**   > --<,132",
"111,<,,,,2  -- >>>--. ,2> **---.-.  XX*X-- X:<: --. >> --:><: -X- -X*--:XXX**o*Xo XX- X<:--,,,21",
"11<,  ,2 -. .::>,,2>,,2,>-*X-    X**. **-  :>2>XX--.::   >:>:-XX. .XoX>2>X**X..*#o:---XX<,,2>,11",
"3122<  ,-X-   > >>,2,,2> -X-   -:X** :XX    ,1<X-.-- :  <, >:-X-   Xo*,>2>o* : Xo* ..X*X,<><:,33",
"3111<.---..>,  <   >>>>  .--  -X**o*X:* >..X-22: :   >  2, ::..-   -XX>.>222>  ***:>22>>>: --<33",
"111,>.X-:>,2:.->>.--:>   .X-: X*o*******<--X*<<>>:,<>>..22-::<:   >  :>.->>22 **X 222>>> : X-233",
"1 .<,.-.<<,2-------.>>> .-X->.-X*-****X*> X** :: >22,,. ,:--::> >>  >><.-::>>2*X:22,>> : : -,133",
"-X- ,,>22 .**-o*o-o>1:XooX- >X--<-X**-XX>.X** .-->2..-2<:--.>:>>::..>>>.    .:2222>>>   >: <1333",
"-..<, .<,.-oo*ooo**o1:*ooX >>**<2.***..>: : ::-X---.--><.XX.< ..-   <<>: ----:>>>>>>:-  >>,2,111",
"1121<..>>-X*ooo****X1 XoX..>2oo*2 -o*<1,::.. :.X-X---X---XX-   --    :  :--- ::<>   >- -:>>><2<1",
"11121..: .X*o*X*Xooo::-X..X>2*oo22-*<21,X*XX- .----X--XX...- X .    ..-- >> - :>>:--   . ::><111",
"11 ..>> - . X*X*X-*X< XX. X*>>Xo2222>>:X**..<,..--.--.<...:,X  ..  .-.  ,,::--- - ----:  ::  131",
"31.-.,>.X-: >*XX->:,  X.  *o*:2222>2>  Xo,,<22..:-XX-:<..>:22,>.-<< .,<,,<:: -- ---- -: <,> .231",
"31 .,, -X-. :.-- <,2: :  XXo.12>>  X>  Xo>,,,2 .>:.-.:<<>2 --2:--<22<, . >:>>  :--   :  ,<: .113",
"3111211..--- <<<<11XXX  X*.: 1>.. XX>>:XX:>.. ,:>-<::<.>,2.X-2<-.,,2<:.-..22>. ::- > >: <<:::233",
"11121121<.. <1<112 X*X  Xoo111X**:>><,<>>> --.<>.X->:>.-.,.-.,,<<.-->>.X .2, --<<>  .<22<>::>,13",
"3121>111111<<:  11 XX>..*oo < X** :>>>,<>< ..>>:.X-12--X.2,    <<-X->2.- >2< -.><: ..<,,><::2213",
"312112<,12121<  << - <<:XXX2<< X- > XX>>>>::<<>>...21-X-,2 ...--:.--222::<2.-  ,>    >:   :,1213",
"112<<<><<<<11<<<<.< ,<,<1211,2,  ,:X*X>>>::>2112,>,,<<221,.--.X*-<<,12><<><X-:,2>     :    >,113",
"111,<<>:<<<   22 -.>>2  >121112222:XX:>:>:,221122>12,<2222 ..>.X.<<,<<--: :XX>>,>  ::>  :: :,213",
"31,>>< -.<2  ><> -. ,2 ..>: ><<>,<,>>>:  :222<2>>>:>2<:.. ,<<.<-  ,:::-., *oo>><>   ::XX<>::::11",
"11><2, --:1,::      <:< :>>:  ><<<><><:  >22>>>>>>::2,:.-.2,.*X<< .X-:<,2>*o*:>>:   >  :><:::>13",
"1,  2: - :2<.---:> .>:>> <<  .><<>::<>: :2,>:   <,: <<>..><<.X->< .XX *X  XoX:>>:*o*,::: ,   ,33",
"1.--::: :: < .--:> .< : :<2  ,,>>   :>::<2><2   >>: <<::><<:..-<,2, :oooX.>:::- :*o*,<:::<: :<13",
"1.  ::  ::     . ><2<:>-.>12>  X-.::<>::<2  2>:  :>>   ::<,,<<.X<212,oX*--XX>>XX XX ::,<: > .,13",
"111:::  -:.--::>  ><<<, .<12:: XX<>,,> :,<   22,,>>   >: ,22,<-X->>21, -. XX>:*oo ::::>>:  .X:13",
"121,:< --- -  :>>> .>,2..   :: - <><, -->> -:,<<<<:::>>: <  >< X.  >>-XX  *X  Xoo ::: XX   X.:11",
"11,<  :::-: >>,,<>  212.--XX >>,2, ::.-->  -::<<<<:::::::--- 2XO*.-  .XXXX*X.*-X   :: XX : . ,11",
"311   :: -.>,2  -:><22<>.-. 21  ,>     .   ::<:  >>>: >,,.. ..Xoo.-. .--*X***oo. >XX* ::>::>,113",
"331  ,<, --><< ..:<21221::>,12  ::.-.>: :  <<<: .,<<>:>22>XX..XoXX-XX**.o Xo*oo.->X** <<<,2><133",
"3121,1,,   >:   >:>2. 12><<<:>  :: - >>>::  222 .2,<::<2<*ooXXXXXXX-XX- >>X***X.- :X :>:XX,>,313",
"112122112>>::: >>>>   21:  .-.>>:.  :>:>,<  1,<  2>:::<<>**X..XX-XXX -  ,< .   XX <,> :XXX><2133",
"31,2<2<,,<>>>>>::,2  :<<::  ..:> -- >>   2121,<,12>:::<,>   XXXX.-*o-.   >>>:  *o 22,,:XX:>,2333",
"1122>,><<22<<>>:  .->,21:::  - : --::> . 112,,2111<> :22<  . :XX.X*o-  :. XX- .** >,,>   ><,2133",
"1111<,>>>21<<>  : --<211>>>>:.-:   : >< 212,  1111,<>>22<> XXX<:.*.X:   : XX- .XX :> :  :<,,2133",
"1111<,2,211<:  :< . 2,<,   ,> -,,2,>.--,,22   11  <<><2212>X*X><- :><:  --.-   :>: ..: -><,,2113",
"31122222,,,>.-- 2<,21 >< ..2>  2,22>.X-,2:<  221..,,111211,XX <<   :< -.-      ><: ..< .><<>,233",
"311221222,2,.  <,  ,2  >  .22,12 .  .-.,::,---22.-22211111,,,<,< : ..  .-  .:  --  --<:  :<  231",
"32222>>><222<,,,,  <:.-.<221112--X.-:>>< <2XX-<, -,221,<12,2<<<: >-X-       XX---::.->:   < .113",
"1222: .--212<22,> ..  - 2,,21  -...-. ,<. ,.--<,2<,,2 -,12222<>:><-..::..   ...--::>>>: ... .,14",
"3111< .X-222,:   <..-> 2,:><2  <>   : -.:><  X*<>,2,<.X<2212,2  <,:::2<.  :-X-  <::><<>:--   ,23",
"12 .:>.-.>22,.X- <.X-.:2,  .><<,< :>> - XX-.-X* - 22>-X:>22,,2, 22::: <:  <.- : 22 ..<,,.-::,<,1",
"1.X- ,>:,, ,:---,2.--->,>:.---, >...  .-X---.--   <<>.->:21,,22,<<>:...:  ->.   22 ..>,,..:>,1,3",
"1...,2. 2,..<..-,<<   >.XX---.>  ...X*X-.--  ---.:>,::<,,,,,222,>><<..    X-.. .. >: >>2   <1113",
"12,22< .,<-X-,,<<21,>::-X*X  ::    <-** -.- XX:--:::  ,22<<,2,2::<<< .< *o XXXo-<<<>.*.   <<,311",
"32<><<2...XX->-..<22:  -X*-:>: . :>< X.>  X-XX- >>>>: 22< :22,>:>,<,    *ooX-**<<---***  :2<2133",
"31,.. <.--.---X-><<,:  .-- :> -..>,2>  >>XX-.:>:-..> :<<:::,,,: :  > X- X*o-:XX>>X*XXXX,::>,2113",
"11,...>-X->:-X- ..>--->:..    ..-:<, .- >-* >XX:.-  :>    :,<<   .- -XX--XX> XX.-**o,22,>>><1133",
"111..:>.--::<..XXX.X-,, 2,22> ..:22,---2:>--..-:-X-< <>   :,><   XX--*oX--X>....XX*o:2, <<211333",
"311  :: .  : - X-.-X-.<:22222,..,<<<2222>>>>XX->.X-,>,<  :>, >XXX --o X .-XX...-* XX-.:.2>>23333",
"112:   >::>.--->><.--.<<,2.-22.-,,<222<,,22<>>>>.-.>><>-*X>> X**X:.*o*->:X**. .XoX:.-X.-<::>>133",
"3211,,<212, -->1111>>1,:> --<1>:11111122211:  >22,,2>2,--X<12-*X,2,Xoo :2>*X:2,X** >.- :1: :1333",
"32,122,221311222111>,1>:< .-<111112>>1,,,11:::21>>22>>,..--:,>::2><   ::>1:,,2>X*X:212,122<>>333",
"3,<,22122111312,21,>11:<,,,,12,1112::,,2,,22<<11>>,2: :21:  ,,21,::2,::<:,112,   21111,1111::313",
"32,211121,21312,22>>11>,211121>>1,,> 22122212211>>22::>21> :>>22:  22> <:,221,  ,211,<><311>:133",
",32331<::,23112,>>:>22<>:>1321>>12, >21112111>>>><1    >22,>:>22:  11> ::>1,2,<:22,2,2>>322><333",
"<,1132,<:211312>:>::>,<>:>>>>21122,:213112222>:>>>>  :>2>>:>>:>,>::2312>:>22,>  ,1,>:11132213333",
"<<><12,,>1131>  :,,::,<>>1>:<<,,22<>2111> :2,: 1<<:  ,22>:>><:  ,,22331>>122,: ,<<>::,221>>33333",
"2,  >12111<,2:  <<<2>>>12><>,,<>>,<11>12:  ,,>:12<>::,212>>,,: :,2,11>>12>,,>>:,<<1>:,,,>::33333",
"3:>>12>>1122,:::<2231221,<,122<>:>>12>,2>::1211122>:,<<>>,,, ::>2,223>>1,<<>11222,222,,>:>:13333",
"331222>>11,,:<<2111312,12<<,111>>:>22:,<<<11122122> ,<<>>,,>  >22,>>11112<,11>>11>>12,:><1,23333",
"531112>>11>:>22111<>222,,<<211111,222>2<<,111<>222: ,,,>122,<<222<::,21,,<221>>,<< :,,1131221313",
"551>>>213211211311131111112111>22311:131<123311111,>1121233111112<><<1112312,>>11< >,21331233333",
"533<:>,11,,1,1>22311113213333111111>  111>>211313122211123133111332<21321112,,2111>1113333113333",
"533111112,2113122111333131333131111>  131>:11133313313132113331333113111312111112233312113113333",
"53331333121131321331113113331333111111133311111111313131113331133131311113121111,233312231111333",
"533333331333111133312233333333331333133311111112233333111313313111313313333111312133311333111353",
"533331333333331331311133333333333311333333131121113133311333111333333131333113331313333333211353",
"553333133333333333333333333333333333333333333111131333111333131333333133331113333133333333113355",
"555333333335333333353333333553333355555333333333333333331355333333133333333133353333333333333335",
"555555333355553333555533335555535555555555555333333355333555535533333335553333555335335555333355",
"555555555555555555555555555555555555555555555555555555555555555555555555555555555555555555555555"
};
