/* XPM */
static char *result[] = {
/* columns rows colors chars-per-pixel */
"96 96 34 1 ",
"  c #2F4816",
". c #253911",
"X c #365319",
"o c #567C25",
"O c #729C30",
"+ c #8AB646",
"@ c #88B037",
"# c #7DA533",
"$ c #779F30",
"% c #82AB33",
"& c #6E972D",
"* c #678F2A",
"= c #93BA3B",
"- c #9CC240",
"; c #5E8627",
": c #8EB638",
"> c #4E7222",
", c #324D18",
"< c #41621D",
"1 c #3B581A",
"2 c #1B2A0D",
"3 c #2B4314",
"4 c #486B1F",
"5 c #141F0A",
"6 c #4E6334",
"7 c #434D40",
"8 c #3C4639",
"9 c #36342A",
"0 c #323C30",
"q c #5C743E",
"w c #0F0E09",
"e c #6A804D",
"r c #788F57",
"t c #262622",
/* pixels */
" .XoO+@#$#%$&**O+@#$#%%%OO##$#$&&=---==##O;*$#&******@#;;$O##O$%+@$&***&@%%&*O@@##O$-:OO##;o>;>,",
". <o*O%O&$%%%#&*O%O&$%:%&$:::#%-:=:=#$:$&;>o*O&;*****$$**$$%%%$%++$*;**&@:%&;*::O$&$-:##+%O>><1.",
"2.31o*&&***O$@@**&&**&:%%#::@O#--=$@=#O;o>44o;;o;**$*&***OO$#%%#%%&;**;*+@$&;O=@&*;O@-$$$#$o>1.2",
"22.3X*##;;;>>&;4*##*;*$%::%##&$===#@%;>>4<1114oo;*OO&*O&****o*#$O$*;o;4<O+#**#%;ooo**=$*;;;>4X.2",
"5223 o$$>>44X< <;@%*;*#%==$*;o*%$O#*&4X, X   ,1<>;**&*$&;o>4><4;&;<o>4<<*&&>o$#>44>o;@$*;;;;<322",
"552.,***;<31.334;#@%*&%%%:&>>4>O&&#;>1..2.... 3,<<4>&*O;>4<X<X  o111X1X<441,1o*>11X4*@$&$O>4<3.2",
"2..2X***$4 ,..3X14&#*&%%O$;1<11<*;&oX. 32.3.2..3,X14$*;>4<XX1,33<31X,,  11....<4X.31o&$#%&>X, .2",
"2..2 *#*#>.33   31;$*%%O&&1 <, .oo*;<3.X33.222..2.,&$&o>><.3.3,16 17893 11.22. 1.331<>>&#$433 3 ",
"2...3>*;>o333  3,<o*#:@O;>X X,11;*;o1131 .22252225.oO>>><3.22.886,168033...223  2 3 1X3>$*433, ,",
"2....1;>,< 3 .32141*$:%*4  3.. >**<< 1113.22225555.1oX>o4 .2236q6166,3 333..., 3..33,3.4#*&X.3.2",
"55522.;X343   .3X43o$%%@43X13..X*;<X 113.2.3322225.,4>*$>,23336qq,6q1.331X 3.33.3.25...<#o>42255",
"5555224X.1,....31;X;&%:@>,X4 . 1>o>, ,3...3  ...22.3<o;&<  >,.161,4><3  11113, 3...2222<O44>.555",
"2522.. X3.322.2. >1o*#$#;>><131>o>>, 33..3X ....22..<;*o1111X3 X,31<<,X1XX1<<XX,1,..2223;134.555",
"2233 3  3.22.3.2.33*O%*o<1,333<><<<33.3..3, ......2.X&*4>4<XX3 X33141X14411X<4X <,.22222<1,<3255",
"2X1,  X11 .3XX, ..3;;;4,3 33..3 ,X ..33..,13..333.2.3;&o<X1<<3    <<1 <>4>X,>>11<<X.25223>o132w5",
".<XX3.3<4<XX114,.3 X3X;X ....3 ..,, ,33....2.3,1,32..>;o43,X,3XX1111X,<4><11o>X144  .25. o>3.555",
".  3 31X1>o4o>>1.  X3oOo4....3,3.1<<< ...  3 ,4433333o*4<,,,,,X<<<>4114o>1 <<11X1,XX32523><22552",
"..33,4o<1o>oo;><XX,3,;#41  ..X4<3,1<<X.3,<>>< >><X , o>1X,, X <4o>><X,<>4  <<<>>X,<< .22.1,.2.25",
"2.34oooo<oo;>;><<X,..,<3 XX,1>o><3<1<1  1ooo>>4>4><XX<<X<,3 XX<4oo**4<  <<41<o;;331<.3..3<X...22",
"2.,>oo;<4o;*o;;<1X,..33.X, <<oo4,,  33 3<>o>44>>4o>1X,, X 3,111<<;**>>44<<>o4o;;  .33..,1<<.....",
"..,441,<>;**;o4>1X 3  , 11, ,,X,33 ,3333 <1o>44>>,<>4 X2.3,,1>>1>>*;oo>>;OOoo;*oX  ,>3.1<<<.....",
"2...3X4>>;;;;;;>o>X  ,1<<1,,33  4<<XXXX, X>o41o>> ,4>, .3 ,3o;;o>><>>o>o&O*;>**,,>44oo3 441,3...",
"..3.. oooXX;**o4<<X11<4>4,>,,X1o;oo4<<11 3<1114o 33>>XX  33 ooo1>>o>>;;4;**o<;;<<oo;>>>3.33,3.2.",
".3..33>o>,X;**o><4>o<>ooXX4o4><o;o11;&o<1Xo;;1 1 13333,,,33  111<o;>o***o;;<Xo;>o;;;1o>X333,3.23",
"..3..3>>3 1o;;>1,,>o>4XX3,4;o>o4><1Xo;*oXXo;o1<144<XX <44XX XX<>44>>oo;>>;;11**ooo;;111,1>>, .23",
"... ,    3<<>><XXX>><133,1o;>>>4>4<<oo;o>><o1,1<>>41X,<>>1X,11>o><>o;>>1ooo;;*;o*<oo><o,1>>   3.",
".., << 3<>4<411X  3X ... 4>4<X1<<o;;4<;;><<1X3Xoo>>4111<<X1X1>oo4<4o*oX3Xo;>1<4;&*1>>>oo,  3X ..",
"2.33,<< >o><<<X<XX 33..3X4>4XX1>1o;;<1oo<<<< .,o>4>><1<<, <X1>o><<<o*; X3X*;<1<o*;<44o;o ,X,1 22",
"2...,4>>>44X <<,<1X ,33,1<>>11>o;;*;o1;<X44o>331<1<<<X<<3 <1144><<<>ooX4X333X<<;o;1X33XXX1<>>,22",
"... X4o>1X 314>XX<44X X X1>>1<o;*;;;;;;;,>>o;,,XX1 ,XX4433>11,1<<<X<<1X<X2...1<4<1333XXX<1<o>322",
".<4, 4>4,, 3>>>>>>>4, ,,1<1<,4>o;>;;;;o;X<o;;<11<X33  4< 1>>11X<XX<<XX 4<,,,X3;o133 XX<1<1<> .22",
">o><  X33<4;;>*;*>*X.3<44<1X 444,>o;;>ooX4o;;<4>>X344>3,1>>4X1XX1144X 3<1131413333XXX<<<X1<,.222",
">44, <4, 4>**;***;;;.,>o>4< 34o 34;;;44X1<1<11>o>>>4>>X,4oo4,<44><<<  ,X1>41< ,XXXXX1><<XX 3 ...",
"..3.,44XX>o;***;;;o>.14o><4X3;o>.1>;;,. 1144<14o>o>>>o>>>oo><<<>><<<11<<1>><X.. X<<<X><>1XXX,3,.",
"...3.441<4o;*;o;o;o>X,<<<4oX3ooo.3>;,3. o;oo><4>>>>o>>oo444><o<4<<1<44>>411<><1XX1>><<<4<11X,...",
"..<44XX<><4<o;o;o>;o,X>411<>,,>o.333,,Xo;;44, 44>>4>>4,4441 o<<441X<>44<, 11>>><><>>>>1<<11<<.2.",
"2.4>4 X4o>1<X;oo>X1 X 41  1>o,33.3,3,<1o;  ,33441>oo>1,44X133 X4>,,<4 X ,,11<>><>>>><>1<, X<432.",
"2.<4  <>o>4<14>><, 3 ,X1 <>o<..33X143,,4o,3  3<4X14>41,,X3<>>31>>,333.<4<1<XX<<1>><<<1<< ,1<4..2",
"2...3..44>>><,,,,..ooo<1<4<XX23 ,,<<333<<,,<4< 1X>,11,4X 34o>3,>4  33X<444 3X4<11><X<X1<,,111322",
"...3..3.,44<,.,..3<o;o<1>;o...X11, ,X,    14>4,X4o>X1X4>4 4>4  ,,4>>,,1><43 <>>,,X<<4,33,X11X .2",
"2.3.X......,,1<<..<oo,<1444 . XX1X,,668X, 1<<XX14o>.3>>o43 <<<<,,>o4,.X11,3 <>4X,1<44,  X,1133.2",
"2.3..3, .3.3.,<<,,<>< 3 11<  X1XX1,X>>XX,,XX  XX4443.>o> 3<444>>14<<.33 , .1XX< X<<<<X1<<<1 .3.2",
"..3,,,X,,,,..,,,,4,<  33..X,X<41,  4>>,, ,,,3..3 ,  ,,33. 4>>4o;>, 32.3.3, 44, 3X<<<<<1<<<<X ..2",
"... ,,X1,,,<<<33<>4,,.X13.3 ,1<1 3,66XX,  3....33,.3 ,3333<44X4o4, 3 .1133,4>,X X<<11X<<11<1 3.2",
"2. XX,<>4,3<<X,X<>413.111  ,,3 ,3, 16666X,03.3.,,,X,3,144< ,,4,><<3 ,,<13,>4>,X,,1<<11oo,X1111..",
"..X,3 <>>1. 11<1<<<<3 3X   ,,3333  . <eeq67,,, ,,,XX3 14>43 4;o  <<<,  33,>o> ,X1<<<X<<1X,111X.2",
". <<31<><13,4>>>X,1< , 3,3 1, 111.3,44req661XX11 311,,X44X,,4o>3.1<>>1<<11<44,,X1;*; 111< <<< 22",
".4>>111<11<,<4>>X 113,,,   1<<1<<  6eqreq661,111,,11,,11X,,144>  3 <,>>>>< X,,4<1;*; ,111,1<1,.2",
".4<<11<<11<<<<<<,33.. ,1, 3X<<<4>46qrereq6q6,XX11XXX<<<11,  ,,4o,3...;>><<14  4><oo<11 ,1<X<4 .2",
"...111<<>14>>XX   333,81X 3,<<>>oq>6eqeeq6eq6 333,X<<<X1< 33 ,>o43 ..3X<XX>4,Xo**<1111XX1<<4o1.2",
".3. 1,<>>><><1X   1<XXX6,1<<<<>qq666eereq6ee< 3   111XX1<,<<X <o41,  X<<X <<X1o*;<111<oo<<<o41..",
".. ,<<111>1<X,333,667766qer44466q6q6qeeeqqre<X    1111111>>><.4&;<1XX<><6>o4,4>o<1<11<oo<1<4< ..",
"2..<<<11<>4X 3<1<,X17661qee11<oqeqqqqqeeqqeq6,X1<XXX1<X  44<44o;;<<1 X<<q>o>>o;4<Xoo;<11X11X ..2",
"22.<< , <>>X,,<<<, 3078.66q166eeeeeqq6qqqqe61,X<4 ,,X1,.3Xoo44oo4>4>>>4Xo14o>;;4>Xo;;<,,, 3X,.22",
"2.3. .  <<<X1<1<,, 3<<33X7qeeqqqqeqo6<6666qq,33<43 ,113. ;**oooooo>4>><11,>o>o>4>11o<1X1oo X 2.2",
"..3.33..3XX111<X,,,1113.16erreq6qeqqq66611q6. ,<<3X111, X;;o44o>4o>414<1,,1<111>o<, X<1oooX,3.22",
"2. 3,3,  ,XXXXX11 3<<, ,6eereqqqeeeq666>4,X . , .3XX,X3 ,111ooo>1<oo6<1,11X,X11;;133  1oo1X 3222",
"..33X X,,33,,XX11<4>,33.6eeeeq6qeee66<>>433 , 3...,33 .33,,1<1oo4>oo6<X <<64<X<oo1,  X<<<X, 3.22",
"...., XXX3.,,X<<1<>> .2.6qqqq6q6qq6<<16qX, ,4<3... 3  33,,1oo> 14o<>11<,X164<,X<4X,,11<<1,  3.22",
"...., 3 3..,1<<1,<1X..3 6ee66<4161<<44q61, 44<3.1X 3 .33.3Xo;oX,41X,,X1X6<661X1, ,X<<1<>X,  3..2",
"2..33333   X4>><3 ...X,,4qq11<< ,,1<4>q611,<433.44 3..2.2. oo< ,11X1,1616666111,,X1<<,<4X,,X 322",
"2..33.333 3 4<<,31< 3<<X4>>, ,3 1144<4o161 >>>334>3...22223   3 X X66166q6666<<>><144 1<<1,<<32.",
"23333XXX,333,  3.11 33<1X16,3 Xooeqo<1<1>X ;o>, <>3...33.3 3,, XX 6q6666eq66qo>qq<X<4,1<<<,<4..2",
".3331<4>>3.3,33.3111 141,XX,.<4o>>>>4>6<>>Xq>>, 3,  3<43.3333,,X,3qqeqqqrqqqq6>qq6X ,,X<444<4 .t",
"2...,<4o>3333,1X,31141<. 11X 4<,X<4<14q><<14<o;,X 3 ,4o 33.3 3<1 366q66qeeqeq>qq66<, 3 X4>1<< 32",
".3<41X4>4X333<o<1.<>4<1 ,<4>1X, ,<1XX4><oo>4>o;<><33X>o1X33  3 <33166666ee6qq6qq66q6<333<4XX , .",
".4o>< X1  < 1>>< .X1X1, X1>>>> <X444<<4>o>>>4>><<<,,X4>X13.  33   ,16666eee6q6q6666>6 33<<X, . 2",
".444 34<3 44,41133 114X14oo>>4X<<444o;o>4>><<>>>41X 11,     333 ,, ,4466eereq6eqqq6<1  .<<1,...2",
".3 33,<4 ,>o> 3  3. X114>oo<<11<<<<,>;;<>4><oo1>>111<< 33,, 3 311   <4X<rreeeqrq<111<4111<,, 2..",
"23,X,,3444oo>X>44,33144>o;>1X1<4<1X,<o4X<<o>oo><XXXX1<33,<133 X1X , <446rrrre;&66oo>;o>11X3,3.22",
"2. 44<,4>>4>>>o>X,, 14<4>>41X<>44X 3X<<XXoo>41X1>44X<1,,111   1<11<X<o>4erre6o;66**ooo>3XX, 3..2",
".. 444X>o>X1>o><44X>>>X1444<<<44>1, <4><X>;<Xoo14><<1X<<<<1 ,,<<<4><>oo>qerq6o;>o***X  3,,,,..22",
"...441X4>>11,44ooo4o>  <3 33X<44133 >>>31X>>44>1>o>,<,X<<<1 X,<<<oo>>;*ooqe644>>;;**< ,<  3..222",
"2..<<11<4<<1<><o>4>o>4,133333 44 ,,,3333XXXXoo>X4o> X ,<<1X <Xooo<>>*<o<>o;;444>*4;oo4143,X32222",
"..31<<<X11X4>>>XX,4>>4,, 34>334>  ,333,  33,XXXX4>4XX,X>;oXX<o;;o14;*;>X1o;;4<4o*;<>oo4>,11XX.22",
"23..  ,3.3 <>>X....XX. 1X<>>,.X1......333..1<<X33  3X3 >>o,.3>;o 3 o**<13X;o13 o;;<14>41.111.222",
"23 .33 33.2..333...X .X1,<4>,.....3XX.   ..1113.XX33XX 44>>1 X113X,<<<11X.1  3Xooo13.3 .33,XX222",
"2 , 33.33...2.3 3. X..,     .3 ...311  3  33,,..XX 31<13.1<<  3. 113 11,1 ..3 <<<3.... ....112.2",
"23 3...3. 3.2.3 33XX.233....3.XX.  X<33.333.33..XX3311X3.X<1XX331<<33X<,1 33. << 3.. ,X,2..X1.22",
" 2322.,11 32..3 X ,,..3 ,,.2.2 X.3 <X3...3...XXXX,.<<<<X33 X1X331<<..X<11X. 3 ,133 3 3XX233X,222",
", ..23 ,13..2.3X1,X,3..3 ,,,,...33 13.2..3333X1XXXX<<1X3XX1XX1X X1132.3X1X33 X<< . X1...233.2222",
",,X,.3  X..2.X<<133, .333.,,333 33,X3...X<13 1<.,,1<< 33X1XX,1<<  3322.,X.33 1< ,,X11 33.XX22222",
"3 <<X.3..., 31<<,33. 332..3 3.3XX ,..X.31<<  X1.3,X11 3.3XX  1<1 3 .. 32.,  XX1 ,,.X1   X1122222",
"21XX.3XX..33 111,..22..2...... X1X .3X 3X11.3...33X1 ,,XX   <11X3 332 32.3 X..333 333  X1X1.2222",
"22.333XX..  1, 3..252..2..33...XX1,331 ,,,...33.33X< ,,XX  X<<X33 XX...2.33..XX..XX.3 1X,. 32222",
"52...3XX..X1X.....3 ........22... ..3X3,, ...,X3331<   X.33 ,,333 , .....3..2,X ,,<1  ..2.33.2.2",
"221ooo<13<11<XX31, .333   X,  <1<3XX;131>1<33111114o11<1<3311111<>4<1333X.3,14o11>;o4<1331<33333",
"233>;o4114414X41<.,   .1,.... XX111o;;111oo<113131<<<111<313311133<41 .X , X1<<111o1113333113333",
"522.....3 3..2..3..2222.2.222.2....X<<.2.X1...222.22.2.23..222.222..2.2.2.......33222.3..2..2222",
"5222.222.3..2.2..22...2..222.222.......222........2.2.2...222..22.2.2..225.3.... 3222.332....222",
"52222222.222....2252..2225552222.222.222.......3322222...2.22.2...2.22.2222...2.3.222..222...252",
"52222.22222222.2525...225222252522..222222.2..3...2.222..222...222222.2.225..222.2.22222223..252",
"552222.22222222225522252252552222222222222222....2.222...222.2.222222.2222...2222.22222222..2255",
"55522222222522222225522222555522225555522222222222222222.255222222.22222222.22252222222222222225",
"555555222255552225555555225555525555555555555222222255222555525522222225552222555225225555222255",
"555555555555555555555555555555555555555555555555555555555555555555555555555555555555555555555555"
};
